<svg version="1.0" xmlns="http://www.w3.org/2000/svg"
 width="512pt" height="512pt" viewBox="0 0 512 512"
 preserveAspectRatio="xMidYMid meet">
<g transform="translate(0,512) scale(0.100000,-0.100000)"
fill="#fff" stroke="none">
<path d="M3122 5069 c-39 -12 -24 3 -486 -479 -66 -69 -170 -176 -230 -239
l-111 -114 -390 -225 c-214 -123 -417 -244 -450 -267 -33 -23 -93 -77 -132
-118 -74 -78 -75 -80 -203 -352 -35 -75 -56 -103 -122 -167 -73 -72 -78 -80
-67 -100 42 -79 834 -1446 846 -1459 39 -45 139 -82 391 -145 548 -137 709
-214 969 -466 165 -160 185 -164 241 -53 40 80 51 189 31 287 -22 106 -65 175
-177 288 -138 140 -158 165 -238 303 -58 101 -68 127 -72 176 -5 63 16 118 60
158 12 11 196 121 408 243 476 274 474 272 505 334 93 186 -106 418 -292 341
-47 -20 -76 -19 -96 3 -28 31 -20 57 37 115 62 62 82 114 72 185 -19 141 -131
242 -253 229 -26 -3 -67 -11 -90 -18 -38 -12 -44 -11 -63 6 -33 30 -26 69 21
107 75 60 102 147 75 240 -43 149 -178 222 -318 171 -43 -15 -48 -15 -72 1
-49 31 -38 55 140 312 325 466 335 485 313 566 -6 24 -20 55 -31 71 -39 55
-145 88 -216 66z"/>
<path d="M695 2906 c-131 -76 -221 -154 -247 -214 -38 -84 -20 -198 52 -341
48 -97 388 -685 446 -773 56 -84 152 -174 202 -187 59 -17 142 -12 203 12 69
27 269 139 269 150 0 8 -795 1393 -809 1409 -4 4 -56 -21 -116 -56z"/>
</g>
</svg>
