<svg version="1.0" xmlns="http://www.w3.org/2000/svg"
 width="512pt" height="512pt" viewBox="0 0 512 512"
 preserveAspectRatio="xMidYMid meet">
<g transform="translate(0,512) scale(0.100000,-0.100000)"
fill="#fff" stroke="none">
<path d="M2165 4791 c-92 -24 -160 -78 -206 -163 l-34 -63 -3 -442 -3 -443
321 0 321 0 -3 443 -3 442 -25 50 c-32 64 -92 124 -154 153 -53 25 -160 37
-211 23z"/>
<path d="M1365 4631 c-92 -24 -160 -78 -206 -163 l-34 -63 -3 -362 -3 -363
321 0 321 0 -3 363 -3 362 -25 50 c-32 64 -92 124 -154 153 -53 25 -160 37
-211 23z"/>
<path d="M2965 4631 c-92 -24 -160 -78 -206 -163 l-34 -63 -3 -361 -3 -362 35
-6 c44 -8 94 -50 112 -93 11 -24 14 -91 14 -267 l0 -234 48 -19 c31 -12 72
-18 122 -18 66 1 83 5 138 35 68 36 109 78 144 150 l23 45 0 565 0 565 -25 50
c-32 64 -92 124 -154 153 -53 25 -160 37 -211 23z"/>
<path d="M3765 4311 c-92 -24 -160 -78 -206 -163 l-34 -63 0 -405 0 -405 34
-63 c38 -70 70 -101 145 -140 43 -22 64 -26 136 -26 78 -1 90 2 148 33 69 37
109 79 144 151 23 44 23 50 23 450 l0 405 -25 50 c-32 64 -92 124 -154 153
-53 25 -160 37 -211 23z"/>
<path d="M1205 3351 c-89 -22 -159 -77 -206 -163 l-34 -63 0 -530 0 -530 28
-79 c15 -43 40 -100 54 -125 15 -25 132 -153 260 -283 190 -192 239 -248 261
-295 l27 -58 3 -453 3 -452 1039 0 1040 0 0 448 c0 376 3 457 15 500 12 40 57
107 181 273 197 264 219 297 253 397 25 77 25 77 29 474 l3 398 -64 -30 c-141
-67 -303 -75 -452 -25 -75 25 -93 34 -167 83 l-37 24 -65 -41 c-163 -102 -342
-124 -543 -65 -18 5 -25 -1 -41 -33 -70 -137 -243 -268 -401 -305 l-49 -11 65
-76 c121 -142 216 -299 264 -439 24 -70 49 -208 49 -274 0 -119 -85 -194 -197
-173 -49 9 -110 69 -116 115 -3 19 -10 72 -16 117 -28 219 -202 465 -500 703
-115 92 -136 125 -128 197 5 46 42 104 80 125 15 9 93 15 252 18 l230 5 63 34
c70 38 100 69 140 145 26 50 27 57 30 254 l4 202 -664 -1 c-364 -1 -676 -4
-693 -8z"/>
</g>
</svg>
