<svg version="1.0" xmlns="http://www.w3.org/2000/svg"
 width="512pt" height="512pt" viewBox="0 0 512 512"
 preserveAspectRatio="xMidYMid meet">
<g transform="translate(0,512) scale(0.100000,-0.100000)"
fill="#fff" stroke="none">
<path d="M1217 4786 c-91 -33 -164 -109 -188 -198 -6 -25 -9 -329 -7 -870 4
-932 0 -876 78 -1045 47 -100 85 -156 169 -247 126 -138 197 -253 248 -401 39
-115 53 -222 53 -411 l0 -174 954 0 953 0 6 228 c6 233 15 299 58 423 36 105
69 163 259 449 203 305 228 351 267 477 26 86 27 94 27 353 l1 265 -26 56
c-15 31 -43 75 -63 97 -35 38 -124 92 -153 92 -10 0 -13 -38 -13 -174 0 -169
-1 -176 -23 -202 -30 -35 -79 -37 -110 -5 -22 22 -22 22 -27 564 -5 535 -5
543 -27 583 -105 196 -371 204 -477 15 -25 -46 -30 -67 -34 -140 -4 -105 -15
-136 -54 -152 -24 -10 -35 -9 -63 4 -39 19 -42 28 -48 142 -3 61 -10 92 -30
131 -69 136 -234 191 -368 124 -104 -52 -149 -129 -158 -269 -6 -82 -9 -95
-30 -112 -27 -22 -49 -24 -85 -8 -34 16 -39 30 -46 139 -7 105 -22 148 -72
199 -53 54 -104 75 -183 76 -82 0 -130 -20 -186 -77 -48 -49 -69 -113 -69
-204 0 -83 -12 -117 -47 -133 -34 -16 -57 -14 -84 8 -20 16 -24 31 -30 108 -4
55 -14 106 -27 135 -56 127 -218 199 -345 154z"/>
<path d="M1245 1267 c-55 -22 -84 -48 -110 -100 l-25 -51 0 -317 0 -317 28
-53 c22 -43 38 -59 81 -81 l53 -28 1288 0 1288 0 53 28 c43 22 59 38 81 81
l28 53 0 317 0 317 -25 50 c-27 54 -60 84 -114 102 -49 17 -2583 16 -2626 -1z"/>
</g>
</svg>
