<svg version="1.0" xmlns="http://www.w3.org/2000/svg"
 width="512pt" height="512pt" viewBox="0 0 512 512"
 preserveAspectRatio="xMidYMid meet">
<g transform="translate(0,512) scale(0.100000,-0.100000)"
fill="#fff" stroke="none">
<path d="M2453 5104 c-60 -22 -127 -86 -160 -152 l-28 -57 -5 -1193 -5 -1194
-24 -19 c-30 -25 -72 -24 -104 1 l-26 21 -3 993 -3 993 -35 69 c-58 114 -159
173 -274 161 -104 -10 -195 -85 -235 -191 -21 -57 -21 -61 -21 -1020 0 -945 0
-964 -20 -988 -39 -50 -118 -37 -139 22 -8 23 -11 222 -11 675 0 723 3 697
-76 784 -59 66 -119 93 -206 93 -86 0 -141 -26 -202 -93 -88 -98 -81 39 -84
-1554 -2 -897 1 -1456 7 -1535 21 -257 112 -467 275 -638 142 -149 315 -241
506 -272 88 -14 1353 -13 1440 1 92 14 217 59 307 110 94 53 270 224 322 313
46 77 648 1643 663 1722 19 107 -17 231 -94 316 -45 51 -481 458 -490 458 -4
0 -6 -177 -5 -394 l2 -394 -24 -26 c-30 -32 -78 -35 -112 -7 l-24 19 -5 1294
-5 1293 -26 56 c-52 110 -144 172 -254 173 -119 0 -226 -86 -265 -211 -20 -64
-20 -91 -20 -1170 l0 -1104 -25 -24 c-29 -30 -74 -32 -106 -6 l-24 19 -5 1219
-5 1218 -33 67 c-68 139 -204 200 -339 152z"/>
</g>
</svg>
