<svg version="1.0" xmlns="http://www.w3.org/2000/svg"
 width="512pt" height="512pt" viewBox="0 0 512 512"
 preserveAspectRatio="xMidYMid meet">
<g transform="translate(0,512) scale(0.100000,-0.100000)"
fill="#fff" stroke="none">
<path d="M2214 5096 c-62 -29 -110 -85 -128 -151 -14 -49 -73 -1362 -64 -1429
3 -28 6 -26 222 133 121 88 222 162 226 163 3 2 79 94 168 205 l162 202 0 239
c0 316 -18 384 -134 510 -119 128 -326 187 -452 128z"/>
<path d="M3535 4841 c-22 -10 -58 -38 -81 -62 -40 -43 -704 -873 -704 -880 0
-2 30 -5 68 -7 163 -6 269 -55 477 -220 83 -66 153 -118 156 -116 20 12 464
632 484 676 58 128 54 277 -12 410 -41 81 -125 171 -187 199 -54 25 -148 25
-201 0z"/>
<path d="M1336 4705 c-109 -30 -186 -126 -186 -232 0 -25 183 -749 341 -1346
l10 -39 47 44 c26 24 102 83 170 132 67 49 124 92 127 96 5 8 45 921 45 1033
0 70 -3 83 -29 120 -91 133 -234 208 -393 206 -46 0 -105 -7 -132 -14z"/>
<path d="M2740 3734 c-64 -11 -119 -27 -163 -50 -66 -33 -890 -638 -950 -697
-30 -29 -62 -76 -84 -124 l-37 -77 -193 -1345 c-106 -740 -192 -1356 -193
-1369 0 -13 11 -34 25 -47 l24 -25 911 0 911 0 24 25 c14 13 25 30 25 37 0 7
-16 133 -37 280 l-37 268 336 337 c194 196 350 361 371 393 58 92 407 798 407
824 0 46 -29 65 -160 103 -117 34 -134 37 -265 37 -126 0 -148 -3 -220 -27
-97 -32 -191 -86 -259 -148 -28 -26 -114 -119 -191 -208 l-140 -161 -198 0
c-197 0 -198 0 -222 25 l-25 24 0 346 c0 222 4 353 10 366 11 20 445 397 467
406 7 3 95 -59 195 -138 101 -79 207 -158 236 -175 163 -99 368 -108 535 -23
124 63 169 118 169 209 0 92 0 92 -496 489 -448 358 -518 408 -601 429 -50 13
-142 21 -175 16z"/>
</g>
</svg>
