<svg version="1.0" xmlns="http://www.w3.org/2000/svg"
 width="512pt" height="512pt" viewBox="0 0 512 512"
 preserveAspectRatio="xMidYMid meet">
<g transform="translate(0,512) scale(0.100000,-0.100000)"
fill="#fff" stroke="none">
<path d="M3112 4975 c-147 -33 -259 -141 -298 -290 -11 -39 -14 -174 -14 -606
l0 -555 -72 35 c-67 34 -78 36 -167 36 -87 0 -102 -3 -162 -31 -75 -36 -138
-88 -171 -142 -12 -21 -22 -38 -24 -40 -1 -2 -22 12 -47 31 -73 56 -127 72
-242 72 -88 0 -107 -3 -157 -27 -95 -44 -193 -151 -213 -231 -4 -15 -9 -27
-12 -27 -3 0 -39 17 -81 38 -72 35 -81 37 -172 37 -91 0 -100 -2 -172 -37 -91
-45 -147 -103 -191 -196 l-32 -67 -3 -575 c-2 -360 1 -618 8 -690 19 -204 59
-399 136 -657 l37 -123 1403 0 1404 0 24 38 c104 165 228 482 281 722 46 205
59 323 59 550 1 204 0 218 -23 275 -73 182 -225 308 -399 331 l-52 7 0 -531 0
-531 -23 -27 c-33 -37 -81 -37 -114 0 l-23 27 0 1424 c0 1390 0 1424 -20 1487
-62 201 -264 319 -468 273z"/>
<path d="M1090 592 c0 -251 24 -326 128 -403 83 -61 50 -60 1263 -57 l1104 3
53 24 c65 29 134 104 156 168 13 36 16 90 16 245 l0 198 -1360 0 -1360 0 0
-178z"/>
</g>
</svg>
