<svg version="1.0" xmlns="http://www.w3.org/2000/svg"
 width="512pt" height="512pt" viewBox="0 0 512 512"
 preserveAspectRatio="xMidYMid meet">
<g transform="translate(0,512) scale(0.100000,-0.100000)"
fill="#fff" stroke="none">
<path d="M2294 4974 c-78 -28 -148 -106 -168 -186 -3 -15 1 -433 9 -930 20
-1233 21 -1173 -10 -1203 -21 -21 -33 -25 -89 -25 -115 0 -89 -84 -300 938
-204 983 -196 957 -283 1012 -131 83 -295 41 -364 -93 -41 -80 -41 -79 140
-952 94 -451 171 -833 171 -848 0 -37 -40 -77 -79 -77 -65 0 -68 7 -236 560
-86 283 -167 534 -181 557 -81 140 -292 156 -399 30 -42 -49 -70 -133 -61
-186 3 -20 91 -363 195 -761 l189 -725 80 -590 c45 -324 84 -619 87 -655 27
-288 221 -546 493 -656 130 -52 155 -54 825 -54 690 0 693 1 816 65 113 60
185 127 273 255 52 77 1130 1431 1200 1508 122 136 92 321 -67 405 -56 30
-164 30 -220 0 -22 -12 -197 -148 -390 -302 -364 -292 -382 -303 -418 -263
-37 40 -24 188 118 1391 87 732 133 1156 129 1181 -10 62 -62 140 -116 173
-35 22 -64 31 -112 34 -57 5 -72 2 -120 -21 -62 -30 -109 -81 -131 -141 -8
-22 -87 -418 -175 -879 -89 -462 -165 -847 -171 -857 -18 -35 -51 -49 -117
-49 -52 0 -67 4 -86 23 -23 23 -23 27 -30 323 -3 164 -11 625 -16 1024 -6 399
-12 744 -15 768 -10 89 -82 175 -173 206 -56 20 -143 19 -198 0z"/>
</g>
</svg>
