<svg version="1.0" xmlns="http://www.w3.org/2000/svg"
 width="512pt" height="512pt" viewBox="0 0 512 512"
 preserveAspectRatio="xMidYMid meet">
<g transform="translate(0,512) scale(0.100000,-0.100000)"
fill="#fff" stroke="none">
<path d="M2300 5111 c-78 -25 -136 -78 -172 -156 l-23 -50 -3 -1200 -2 -1199
-22 -23 c-29 -31 -77 -31 -106 0 l-22 23 0 1025 c0 1133 2 1097 -63 1188 -63
87 -196 127 -291 87 -50 -21 -104 -74 -134 -130 l-27 -51 -5 -1063 -5 -1064
-24 -19 c-30 -24 -72 -24 -102 0 l-24 19 -5 654 c-5 650 -5 653 -27 694 -108
203 -381 198 -474 -8 l-24 -53 0 -1490 c0 -1606 -2 -1546 52 -1700 98 -277
311 -483 583 -567 74 -22 82 -22 720 -26 682 -3 713 -2 850 44 160 52 339 191
433 334 43 66 997 1898 997 1914 -1 16 -118 102 -175 127 -66 30 -192 37 -264
16 -110 -32 -152 -68 -328 -282 -91 -110 -178 -206 -193 -214 -23 -11 -32 -11
-56 0 -16 8 -34 25 -41 39 -10 20 -13 274 -13 1206 0 1326 5 1233 -76 1323
-127 141 -334 103 -418 -78 -21 -45 -21 -57 -26 -989 l-5 -944 -24 -19 c-44
-36 -100 -19 -121 35 -7 18 -10 414 -10 1205 0 1295 3 1226 -61 1304 -47 57
-109 89 -182 93 -34 2 -73 0 -87 -5z"/>
</g>
</svg>
