<svg version="1.0" xmlns="http://www.w3.org/2000/svg"
 width="512pt" height="512pt" viewBox="0 0 512 512"
 preserveAspectRatio="xMidYMid meet">
<g transform="translate(0,512) scale(0.100000,-0.100000)"
fill="#fff" stroke="none">
<path d="M1965 5107 c-95 -32 -157 -84 -204 -172 l-26 -50 -5 -1020 c-3 -561
-6 -1011 -8 -999 -4 39 -54 123 -94 160 -65 58 -137 86 -222 86 -128 0 -231
-64 -287 -178 -29 -59 -33 -77 -37 -177 l-5 -111 -19 52 c-24 64 -95 139 -163
172 -41 20 -66 24 -135 24 -69 0 -94 -4 -135 -24 -70 -34 -139 -107 -165 -177
-21 -56 -21 -64 -17 -652 3 -573 4 -600 26 -696 80 -357 263 -670 523 -894
l88 -75 0 -188 0 -188 945 0 945 0 0 189 0 189 145 121 c204 171 267 239 346
373 56 95 94 197 128 340 48 203 101 323 201 458 79 107 157 173 533 453 396
295 370 266 304 343 -82 94 -212 171 -350 206 -110 28 -247 22 -366 -17 -74
-24 -128 -56 -469 -286 -213 -142 -387 -257 -389 -255 -2 2 146 480 329 1062
309 987 332 1064 332 1134 1 61 -4 86 -25 131 -55 117 -159 184 -289 184 -128
0 -237 -68 -288 -180 -11 -22 -178 -502 -373 -1068 l-354 -1027 -5 1257 -5
1258 -26 56 c-57 120 -154 189 -277 195 -39 2 -84 -2 -107 -9z"/>
</g>
</svg>
