<svg version="1.0" xmlns="http://www.w3.org/2000/svg"
 width="512pt" height="512pt" viewBox="0 0 512 512"
 preserveAspectRatio="xMidYMid meet">
<g transform="translate(0,512) scale(0.100000,-0.100000)"
fill="#fff" stroke="none">
<path d="M2294 5106 c-78 -25 -128 -78 -145 -155 -5 -24 23 -415 87 -1191 52
-635 93 -1175 90 -1200 -10 -101 -145 -139 -200 -55 -8 12 -157 474 -331 1026
-174 552 -324 1017 -334 1034 -51 89 -182 110 -283 46 -52 -33 -78 -81 -78
-144 0 -27 103 -427 266 -1028 195 -724 264 -992 259 -1015 -13 -70 -96 -112
-160 -81 -25 12 -41 32 -63 80 -32 67 -74 110 -129 134 -46 19 -131 16 -179
-6 -49 -23 -107 -88 -122 -140 -15 -47 -15 -230 -2 -416 55 -755 275 -1400
642 -1887 l82 -108 862 0 862 0 90 133 c327 486 551 975 629 1372 27 139 24
374 -5 485 -44 163 -138 323 -263 449 -62 61 -138 126 -143 120 -1 -2 -33
-188 -71 -414 -37 -225 -73 -424 -80 -442 -24 -58 -102 -80 -161 -44 -68 41
-79 -58 156 1437 154 982 211 1372 208 1413 -5 69 -32 113 -88 141 -47 24
-138 27 -179 5 -37 -19 -77 -66 -90 -107 -6 -18 -100 -480 -210 -1025 -110
-546 -205 -1001 -211 -1012 -38 -71 -160 -66 -199 8 -6 10 -58 555 -116 1212
-59 657 -111 1210 -116 1230 -29 115 -158 184 -275 145z"/>
</g>
</svg>
