<svg version="1.0" xmlns="http://www.w3.org/2000/svg"
 width="512pt" height="512pt" viewBox="0 0 512 512"
 preserveAspectRatio="xMidYMid meet">
<g transform="translate(0,512) scale(0.100000,-0.100000)"
fill="#fff" stroke="none">
<path d="M2670 5093 c-41 -21 -62 -40 -85 -77 l-30 -49 -5 -1099 -5 -1099 -42
-40 c-38 -35 -48 -39 -94 -39 -61 0 -111 27 -137 73 -15 28 -18 79 -22 447 -6
462 -4 448 -76 508 -118 97 -300 35 -335 -115 -5 -21 -9 -211 -9 -423 0 -366
-1 -387 -20 -418 -62 -101 -212 -95 -260 11 -18 38 -20 67 -20 300 0 210 -3
265 -15 295 -66 157 -286 171 -372 24 l-28 -47 -5 -280 c-4 -249 -7 -284 -23
-308 -27 -41 -76 -67 -125 -67 -54 0 -94 20 -124 62 -21 30 -23 46 -28 185 -5
149 -5 152 -35 195 -94 132 -283 121 -357 -21 l-28 -53 0 -827 c0 -473 5 -858
10 -901 16 -122 48 -234 126 -436 112 -292 133 -393 134 -627 0 -158 9 -190
66 -233 l37 -29 1040 -3 1040 -2 44 21 c58 28 89 82 98 174 21 222 100 405
231 538 167 169 867 748 1331 1099 140 107 183 148 183 175 0 44 -83 153 -149
194 -41 26 -53 29 -132 29 -123 0 -180 -21 -499 -180 -151 -75 -292 -143 -313
-150 -301 -97 -621 112 -657 430 -6 50 -10 606 -10 1361 l0 1276 -23 44 c-31
58 -99 101 -170 106 -42 4 -62 -1 -107 -24z"/>
</g>
</svg>
