<svg version="1.0" xmlns="http://www.w3.org/2000/svg"
 width="512pt" height="512pt" viewBox="0 0 512 512"
 preserveAspectRatio="xMidYMid meet">
<g transform="translate(0,512) scale(0.100000,-0.100000)"
fill="#fff" stroke="none">
<path d="M2261 4964 c-62 -31 -104 -84 -120 -152 -9 -37 -4 -204 23 -807 47
-1013 46 -940 19 -966 -18 -18 -32 -22 -81 -20 -120 3 -213 -57 -344 -220 -33
-41 -47 -50 -119 -73 -142 -46 -247 -135 -311 -264 l-32 -64 108 -836 c100
-773 111 -845 142 -938 33 -98 34 -105 34 -263 l0 -163 34 -34 34 -34 318 1
c176 1 473 4 661 8 l343 6 27 28 28 27 5 218 5 217 336 475 c415 588 391 553
419 625 18 46 23 81 24 155 1 151 -15 191 -176 432 -76 114 -143 220 -149 235
-6 16 -11 51 -11 78 0 28 28 487 63 1021 70 1076 70 1020 3 1094 -46 51 -130
84 -197 77 -57 -5 -111 -44 -144 -103 -15 -27 -69 -267 -183 -809 -88 -423
-163 -780 -167 -792 -3 -14 -13 -23 -24 -23 -11 0 -21 9 -23 23 -3 12 -51 396
-106 852 -56 461 -107 849 -116 872 -19 52 -89 118 -140 132 -66 18 -125 13
-183 -15z"/>
</g>
</svg>
