<svg version="1.0" xmlns="http://www.w3.org/2000/svg"
 width="443.000000pt" height="443.000000pt" viewBox="0 0 443 443"
 preserveAspectRatio="xMidYMid meet">
<g transform="translate(0,443) scale(0.100000,-0.100000)"
fill="#fff" stroke="none">
<path d="M1164 4376 c-58 -27 -87 -62 -103 -124 -22 -81 -12 -100 313 -566
172 -248 185 -276 148 -309 -23 -21 -40 -21 -85 -2 -96 40 -220 -1 -277 -91
-74 -117 -59 -244 39 -322 47 -38 54 -77 21 -107 -19 -17 -25 -18 -63 -6 -23
7 -64 15 -90 18 -122 13 -234 -88 -253 -229 -10 -71 10 -123 72 -185 58 -59
67 -88 36 -116 -23 -21 -49 -21 -95 -2 -139 58 -299 -58 -314 -226 -5 -49 -2
-67 20 -111 33 -66 25 -61 507 -338 212 -122 396 -232 408 -243 44 -40 65 -95
60 -158 -4 -49 -14 -75 -72 -176 -62 -106 -113 -179 -150 -215 -100 -94 -161
-159 -190 -202 -93 -135 -111 -325 -43 -461 28 -58 46 -75 79 -75 23 0 54 24
161 128 251 243 446 339 912 451 94 22 204 50 245 62 80 23 179 70 203 98 12
13 807 1385 846 1459 11 20 6 28 -67 100 -66 64 -87 92 -122 167 -139 295
-126 274 -229 375 -105 104 -86 92 -626 402 l-320 185 -111 114 c-60 63 -164
170 -230 239 -469 490 -446 467 -491 479 -56 16 -82 13 -139 -13z"/>
<path d="M3216 1586 c-223 -387 -406 -708 -406 -713 0 -11 200 -123 269 -150
61 -24 143 -29 203 -13 47 13 136 94 192 174 48 68 404 682 459 792 68 135 85
248 52 332 -29 70 -165 179 -341 270 -20 11 -42 -25 -428 -692z"/>
</g>
</svg>
