<svg version="1.0" xmlns="http://www.w3.org/2000/svg"
 width="512pt" height="512pt" viewBox="0 0 512 512"
 preserveAspectRatio="xMidYMid meet">
<g transform="translate(0,512) scale(0.100000,-0.100000)"
fill="#fff" stroke="none">
<path d="M2805 4791 c-92 -24 -173 -90 -215 -176 l-25 -50 -3 -442 -3 -443
321 0 321 0 -3 443 -3 442 -34 63 c-57 105 -144 160 -260 167 -36 2 -79 1 -96
-4z"/>
<path d="M2005 4631 c-92 -24 -173 -90 -215 -176 l-25 -50 0 -565 0 -565 23
-45 c35 -72 76 -114 144 -150 55 -30 72 -34 138 -35 50 0 91 6 123 18 l47 19
0 234 c0 176 3 243 14 267 18 43 68 85 112 93 l35 6 -3 362 -3 361 -34 63
c-57 105 -144 160 -260 167 -36 2 -79 1 -96 -4z"/>
<path d="M3605 4631 c-92 -24 -173 -90 -215 -176 l-25 -50 -3 -362 -3 -363
321 0 321 0 -3 363 -3 362 -34 63 c-57 105 -144 160 -260 167 -36 2 -79 1 -96
-4z"/>
<path d="M1205 4311 c-92 -24 -173 -90 -215 -176 l-25 -50 0 -405 c0 -400 0
-406 23 -450 35 -72 75 -114 144 -151 58 -31 70 -34 148 -33 72 0 93 4 136 26
75 39 107 70 145 140 l34 63 0 405 0 405 -34 63 c-57 105 -144 160 -260 167
-36 2 -79 1 -96 -4z"/>
<path d="M2562 3158 l3 -203 34 -63 c38 -70 70 -100 145 -140 50 -26 56 -27
281 -32 158 -3 237 -9 252 -18 38 -21 75 -79 80 -125 8 -72 -13 -105 -128
-197 -298 -238 -472 -484 -500 -703 -6 -45 -13 -98 -16 -117 -6 -46 -67 -106
-116 -115 -52 -10 -101 1 -138 32 -61 51 -72 119 -44 274 34 196 131 384 298
580 l65 76 -49 11 c-158 37 -331 168 -401 305 -16 32 -23 38 -41 33 -201 -59
-380 -37 -543 65 l-65 41 -37 -24 c-74 -49 -92 -58 -167 -83 -149 -50 -311
-42 -452 25 l-64 30 3 -398 c5 -528 -11 -480 282 -871 124 -166 169 -233 181
-273 12 -43 15 -124 15 -500 l0 -448 1040 0 1039 0 3 452 3 453 27 58 c22 47
71 103 261 295 128 130 245 258 260 283 14 25 39 82 54 125 l28 79 0 530 0
530 -34 63 c-37 69 -79 109 -151 144 l-45 23 -683 3 -684 3 4 -203z"/>
</g>
</svg>
