<svg version="1.0" xmlns="http://www.w3.org/2000/svg"
 width="512pt" height="512pt" viewBox="0 0 512 512"
 preserveAspectRatio="xMidYMid meet">
<g transform="translate(0,512) scale(0.100000,-0.100000)"
fill="#fff" stroke="none">
<path d="M1627 4786 c-83 -31 -143 -91 -173 -173 -10 -30 -13 -147 -14 -560
l0 -522 -23 -27 c-33 -37 -81 -37 -114 0 -22 26 -23 33 -23 202 0 136 -3 174
-13 174 -29 0 -118 -54 -153 -92 -20 -22 -48 -66 -63 -97 l-26 -56 1 -265 c0
-259 1 -267 27 -353 39 -126 64 -172 267 -477 190 -286 223 -344 259 -449 43
-124 52 -190 58 -423 l6 -228 953 0 954 0 0 174 c0 189 14 296 53 411 51 148
122 263 248 401 84 91 122 146 169 247 79 170 75 118 75 1072 l0 850 -22 41
c-34 63 -66 97 -123 128 -108 59 -242 40 -330 -45 -58 -57 -82 -115 -89 -222
-6 -77 -10 -92 -30 -108 -27 -22 -50 -24 -84 -8 -35 16 -47 50 -47 133 0 91
-21 155 -69 204 -56 57 -104 77 -186 77 -79 -1 -130 -22 -183 -76 -50 -51 -65
-94 -72 -199 -7 -109 -12 -123 -46 -139 -36 -16 -58 -14 -85 8 -21 17 -24 30
-30 112 -5 73 -12 105 -32 144 -104 203 -390 204 -494 1 -20 -39 -27 -70 -30
-131 -6 -114 -9 -123 -48 -142 -28 -13 -39 -14 -63 -4 -39 16 -52 48 -52 129
0 85 -12 129 -53 188 -61 91 -201 137 -300 100z"/>
<path d="M1245 1267 c-55 -22 -84 -48 -110 -100 l-25 -51 0 -317 0 -317 28
-53 c22 -43 38 -59 81 -81 l53 -28 1288 0 1288 0 53 28 c43 22 59 38 81 81
l28 53 0 317 0 317 -25 50 c-27 54 -60 84 -114 102 -49 17 -2583 16 -2626 -1z"/>
</g>
</svg>
