<svg version="1.0" xmlns="http://www.w3.org/2000/svg"
 width="512pt" height="512pt" viewBox="0 0 512 512"
 preserveAspectRatio="xMidYMid meet">
<g transform="translate(0,512) scale(0.100000,-0.100000)"
fill="#fff" stroke="none">
<path d="M2484 5104 c-63 -23 -119 -77 -156 -152 l-33 -67 -5 -1218 -5 -1219
-24 -19 c-32 -26 -77 -24 -106 6 l-25 24 0 1104 c0 1079 0 1106 -20 1170 -39
125 -146 211 -265 211 -110 -1 -202 -63 -254 -173 l-26 -56 -5 -1293 -5 -1294
-24 -19 c-34 -28 -82 -25 -112 7 l-24 26 2 394 c1 217 -1 394 -5 394 -9 0
-445 -407 -490 -458 -77 -85 -114 -213 -93 -318 15 -80 618 -1646 662 -1720
52 -89 228 -260 322 -313 90 -51 215 -96 307 -110 87 -14 1352 -15 1440 -1
191 31 364 123 506 272 163 171 254 381 275 638 6 79 9 638 7 1535 -3 1593 4
1456 -84 1554 -61 67 -116 93 -202 93 -87 0 -147 -27 -206 -93 -79 -87 -76
-61 -76 -784 0 -453 -3 -652 -11 -675 -21 -59 -100 -72 -139 -22 -20 24 -20
43 -20 988 0 959 0 963 -21 1020 -40 106 -131 181 -235 191 -115 12 -216 -47
-274 -161 l-35 -69 -3 -993 -3 -993 -26 -21 c-32 -25 -74 -26 -104 -1 l-24 19
-5 1194 -5 1193 -28 57 c-66 134 -211 199 -343 152z"/>
</g>
</svg>
