<svg version="1.0" xmlns="http://www.w3.org/2000/svg"
 width="512pt" height="512pt" viewBox="0 0 512 512"
 preserveAspectRatio="xMidYMid meet">
<g transform="translate(0,512) scale(0.100000,-0.100000)"
fill="#fff" stroke="none">
<path d="M2265 4989 c-285 -41 -543 -230 -670 -492 -66 -138 -85 -227 -92
-448 l-6 -185 82 -282 c44 -154 81 -283 81 -286 0 -3 -267 -6 -592 -6 -653 0
-673 -2 -789 -61 -39 -19 -89 -57 -129 -98 -202 -205 -199 -509 6 -712 l52
-52 -33 -61 c-109 -200 -77 -432 81 -595 l62 -64 -24 -37 c-64 -97 -90 -260
-60 -378 25 -97 65 -171 131 -238 l60 -62 -33 -61 c-109 -197 -74 -438 87
-598 71 -71 176 -127 271 -143 47 -8 332 -10 980 -7 964 4 967 4 1180 52 118
26 217 58 472 152 l238 88 0 1314 0 1313 -158 172 c-350 378 -734 816 -825
938 l-27 37 0 304 c0 355 -4 381 -74 445 -65 60 -126 72 -271 51z"/>
<path d="M3920 1805 l0 -1585 600 0 600 0 0 1585 0 1585 -600 0 -600 0 0
-1585z"/>
</g>
</svg>
