<svg version="1.0" xmlns="http://www.w3.org/2000/svg"
 width="512pt" height="512pt" viewBox="0 0 512 512"
 preserveAspectRatio="xMidYMid meet">
<g transform="translate(0,512) scale(0.100000,-0.100000)"
fill="#fff" stroke="none">
<path d="M2686 5104 c-169 -41 -306 -178 -351 -351 -11 -43 -15 -117 -15 -295
l0 -239 162 -202 c89 -111 165 -203 168 -205 4 -1 105 -75 226 -163 216 -159
219 -161 222 -133 9 67 -50 1380 -64 1429 -28 103 -125 176 -234 174 -30 0
-81 -7 -114 -15z"/>
<path d="M1384 4841 c-62 -28 -146 -118 -187 -199 -66 -133 -70 -282 -12 -410
20 -44 464 -664 484 -676 3 -2 74 50 156 116 208 165 314 214 477 220 38 2 68
5 68 7 0 7 -664 837 -704 880 -23 24 -59 52 -81 62 -53 25 -147 25 -201 0z"/>
<path d="M3498 4696 c-99 -35 -179 -96 -239 -183 -26 -37 -29 -50 -29 -120 0
-112 40 -1025 45 -1033 3 -4 60 -47 127 -96 68 -49 144 -108 170 -132 l47 -44
10 39 c158 597 341 1321 341 1346 0 73 -41 150 -104 195 -79 56 -252 69 -368
28z"/>
<path d="M2256 3729 c-116 -17 -164 -49 -651 -439 -497 -398 -497 -398 -497
-490 0 -91 45 -146 169 -209 167 -85 372 -76 535 23 29 17 135 96 236 175 100
79 188 141 195 138 22 -9 456 -386 467 -406 6 -13 10 -144 10 -366 l0 -346
-25 -24 c-24 -25 -25 -25 -222 -25 l-198 0 -140 161 c-77 89 -163 182 -191
208 -68 62 -162 116 -259 148 -72 24 -94 27 -220 27 -131 0 -148 -3 -265 -37
-131 -38 -160 -57 -160 -103 0 -26 349 -732 407 -824 21 -32 177 -197 371
-393 l336 -337 -37 -268 c-21 -147 -37 -273 -37 -280 0 -7 11 -24 25 -37 l24
-25 911 0 911 0 24 25 c14 13 25 34 25 47 -1 13 -87 629 -193 1369 l-193 1345
-37 77 c-22 48 -54 95 -84 124 -60 60 -884 665 -950 697 -88 44 -189 60 -287
45z"/>
</g>
</svg>
