<svg version="1.0" xmlns="http://www.w3.org/2000/svg"
 width="512pt" height="512pt" viewBox="0 0 512 512"
 preserveAspectRatio="xMidYMid meet">
<g transform="translate(0,512) scale(0.100000,-0.100000)"
fill="#fff" stroke="none">
<path d="M1833 4975 c-70 -15 -90 -24 -154 -71 -60 -43 -115 -124 -140 -203
-18 -61 -19 -104 -19 -1486 l0 -1424 -23 -27 c-17 -20 -33 -27 -57 -27 -24 0
-40 7 -57 27 l-23 27 0 531 0 531 -52 -7 c-174 -23 -326 -149 -399 -331 -23
-57 -24 -71 -23 -275 0 -227 13 -345 59 -550 53 -240 177 -557 281 -722 l24
-38 1404 0 1403 0 37 123 c77 258 117 453 136 657 7 72 10 330 8 691 l-3 575
-37 76 c-45 91 -103 147 -196 191 -61 29 -76 32 -163 32 -90 0 -99 -2 -171
-37 -42 -21 -78 -38 -81 -38 -3 0 -8 12 -12 27 -20 80 -118 187 -213 231 -50
24 -69 27 -157 27 -115 0 -169 -16 -242 -72 -25 -19 -46 -33 -47 -31 -2 2 -12
19 -24 40 -33 54 -96 106 -171 142 -60 28 -75 31 -162 31 -89 0 -100 -2 -167
-36 l-72 -35 0 555 c0 432 -3 567 -14 606 -40 151 -151 258 -302 290 -82 17
-91 17 -171 0z"/>
<path d="M1310 572 c0 -155 3 -209 16 -245 22 -64 91 -139 156 -168 l53 -24
1104 -3 c1213 -3 1180 -4 1263 57 104 77 128 152 128 403 l0 178 -1360 0
-1360 0 0 -198z"/>
</g>
</svg>
