<svg version="1.0" xmlns="http://www.w3.org/2000/svg"
 width="512pt" height="512pt" viewBox="0 0 512 512"
 preserveAspectRatio="xMidYMid meet">
<g transform="translate(0,512) scale(0.100000,-0.100000)"
fill="#fff" stroke="none">
<path d="M2624 4974 c-88 -31 -159 -119 -169 -206 -3 -24 -9 -369 -15 -768 -5
-399 -13 -860 -16 -1024 -7 -296 -7 -300 -30 -323 -19 -19 -34 -23 -86 -23
-66 0 -99 14 -117 49 -6 10 -82 395 -171 857 -88 461 -167 857 -175 879 -22
60 -69 111 -131 141 -48 23 -63 26 -120 21 -48 -3 -77 -12 -112 -34 -54 -33
-106 -111 -116 -173 -4 -25 42 -449 129 -1181 144 -1218 156 -1357 117 -1392
-10 -10 -29 -17 -43 -17 -17 0 -132 87 -374 281 -192 154 -368 290 -390 302
-56 30 -164 30 -220 0 -159 -84 -189 -269 -67 -405 70 -77 1148 -1431 1200
-1508 88 -128 160 -195 273 -255 123 -64 126 -65 816 -65 517 0 634 3 694 15
147 31 263 93 377 200 147 138 229 302 247 495 3 36 42 331 87 655 l80 590
189 725 c104 398 192 741 195 761 9 53 -19 137 -61 186 -107 126 -318 110
-399 -30 -14 -23 -95 -274 -181 -557 -168 -553 -171 -560 -236 -560 -39 0 -79
40 -79 77 0 15 77 397 171 848 181 873 181 872 140 952 -69 134 -233 176 -364
93 -87 -55 -79 -29 -283 -1012 -211 -1022 -185 -938 -300 -938 -56 0 -68 4
-89 25 -31 30 -30 -30 -10 1203 8 497 12 915 9 930 -20 82 -90 159 -172 186
-56 20 -143 19 -198 0z"/>
</g>
</svg>
