<svg version="1.0" xmlns="http://www.w3.org/2000/svg"
 width="512pt" height="512pt" viewBox="0 0 512 512"
 preserveAspectRatio="xMidYMid meet">
<g transform="translate(0,512) scale(0.100000,-0.100000)"
fill="#fff" stroke="none">
<path d="M2667 5106 c-46 -17 -99 -57 -127 -95 -52 -74 -50 -23 -50 -1292 0
-791 -3 -1187 -10 -1205 -21 -54 -77 -71 -121 -35 l-24 19 -5 944 c-5 932 -5
944 -26 989 -48 103 -133 163 -233 162 -77 0 -133 -26 -185 -84 -81 -90 -76 3
-76 -1323 0 -932 -3 -1186 -13 -1206 -7 -14 -25 -31 -41 -39 -24 -11 -33 -11
-56 0 -15 8 -102 104 -193 214 -176 214 -218 250 -328 282 -72 21 -198 14
-264 -16 -57 -25 -174 -111 -175 -127 0 -16 954 -1848 997 -1914 94 -143 273
-282 433 -334 137 -46 168 -47 850 -44 638 4 646 4 720 26 272 84 485 290 583
567 54 154 52 94 52 1700 l0 1490 -24 53 c-93 206 -366 211 -474 8 -22 -41
-22 -44 -27 -694 l-5 -654 -24 -19 c-30 -24 -72 -24 -102 0 l-24 19 -5 1064
-5 1063 -27 51 c-30 56 -84 109 -134 130 -95 40 -228 0 -291 -87 -65 -91 -63
-55 -63 -1189 l0 -1027 -23 -21 c-31 -29 -77 -29 -105 1 l-22 23 -2 1199 -3
1200 -23 50 c-28 60 -73 110 -127 137 -50 26 -147 33 -198 14z"/>
</g>
</svg>
