<svg version="1.0" xmlns="http://www.w3.org/2000/svg"
 width="512pt" height="512pt" viewBox="0 0 512 512"
 preserveAspectRatio="xMidYMid meet">
<g transform="translate(0,512) scale(0.100000,-0.100000)"
fill="#fff" stroke="none">
<path d="M2963 5102 c-90 -32 -150 -90 -195 -188 l-23 -49 -5 -1258 -5 -1257
-354 1027 c-195 566 -362 1046 -373 1068 -31 68 -75 112 -146 147 -164 81
-353 15 -431 -151 -21 -45 -26 -70 -25 -131 0 -70 23 -147 332 -1134 183 -582
331 -1060 329 -1062 -2 -2 -176 113 -389 255 -341 230 -395 262 -469 286 -119
39 -256 45 -366 17 -138 -35 -268 -112 -350 -206 -66 -77 -92 -48 304 -343
376 -280 454 -346 533 -453 100 -135 153 -255 201 -458 34 -143 72 -245 128
-340 79 -134 142 -202 346 -373 l145 -121 0 -189 0 -189 945 0 945 0 0 188 0
188 88 75 c260 224 443 537 523 894 22 96 23 123 26 696 4 588 4 596 -17 652
-26 70 -95 143 -165 177 -41 20 -66 24 -135 24 -69 0 -94 -4 -135 -24 -68 -33
-139 -108 -163 -172 l-19 -52 -5 111 c-4 100 -8 118 -37 177 -96 195 -345 240
-509 92 -40 -37 -90 -121 -94 -160 -2 -12 -5 438 -8 999 l-5 1020 -26 50 c-78
147 -249 220 -396 167z"/>
</g>
</svg>
