<svg version="1.0" xmlns="http://www.w3.org/2000/svg"
 width="512pt" height="512pt" viewBox="0 0 512 512"
 preserveAspectRatio="xMidYMid meet">
<g transform="translate(0,512) scale(0.100000,-0.100000)"
fill="#fff" stroke="none">
<path d="M2686 5105 c-77 -27 -129 -88 -141 -165 -3 -19 -52 -566 -110 -1215
-58 -649 -108 -1188 -111 -1197 -3 -9 -19 -29 -35 -43 -52 -43 -139 -30 -169
26 -6 11 -101 466 -211 1012 -110 545 -204 1007 -210 1025 -13 41 -53 88 -90
107 -41 22 -132 19 -179 -5 -56 -28 -83 -72 -88 -141 -3 -41 54 -431 208
-1413 235 -1495 224 -1396 156 -1437 -59 -36 -137 -14 -161 44 -7 18 -43 217
-80 442 -38 226 -70 412 -71 414 -5 6 -81 -59 -143 -120 -125 -126 -219 -286
-263 -449 -29 -111 -32 -346 -5 -485 78 -397 302 -886 629 -1373 l90 -132 862
0 862 0 82 108 c367 487 587 1132 642 1887 13 186 13 369 -2 416 -15 52 -73
117 -122 140 -48 22 -133 25 -179 6 -55 -24 -97 -67 -129 -134 -22 -48 -38
-68 -63 -80 -64 -31 -147 11 -160 81 -5 23 64 291 259 1015 163 601 266 1001
266 1028 0 63 -26 111 -78 144 -101 64 -232 43 -283 -46 -10 -17 -160 -482
-334 -1034 -174 -552 -323 -1014 -331 -1026 -55 -84 -190 -46 -200 55 -3 25
38 565 90 1200 66 807 92 1166 87 1193 -18 76 -67 128 -145 152 -60 18 -89 18
-140 0z"/>
</g>
</svg>
