<svg version="1.0" xmlns="http://www.w3.org/2000/svg"
 width="512pt" height="512pt" viewBox="0 0 512 512"
 preserveAspectRatio="xMidYMid meet">
<g transform="translate(0,512) scale(0.100000,-0.100000)"
fill="#fff" stroke="none">
<path d="M2261 5094 c-34 -17 -62 -41 -79 -67 l-27 -41 -5 -1345 c-6 -1468 -2
-1368 -67 -1492 -113 -218 -369 -324 -600 -249 -21 7 -162 75 -313 150 -319
159 -376 180 -499 180 -79 0 -91 -3 -132 -29 -66 -41 -149 -150 -149 -194 0
-27 43 -68 183 -175 464 -351 1164 -930 1331 -1099 131 -133 210 -316 231
-538 9 -92 40 -146 98 -174 l44 -21 1040 2 1040 3 37 29 c57 43 66 75 66 233
1 234 22 335 134 627 78 202 110 314 126 436 5 43 10 428 10 901 l0 827 -28
53 c-74 142 -263 153 -357 21 -30 -43 -30 -46 -35 -195 -5 -139 -7 -155 -28
-185 -61 -85 -192 -83 -249 5 -16 24 -19 59 -23 308 l-5 280 -28 47 c-86 147
-306 133 -372 -24 -12 -30 -15 -85 -15 -295 0 -233 -2 -262 -20 -300 -48 -106
-198 -112 -260 -11 -19 31 -20 52 -20 418 0 212 -4 402 -9 423 -35 150 -217
212 -335 115 -72 -60 -70 -46 -76 -508 -4 -368 -7 -419 -22 -447 -26 -46 -76
-73 -137 -73 -46 0 -56 4 -94 39 l-42 40 -5 1099 -5 1099 -30 49 c-23 37 -44
56 -84 77 -70 35 -121 35 -190 1z"/>
</g>
</svg>
