<svg version="1.0" xmlns="http://www.w3.org/2000/svg"
 width="512pt" height="512pt" viewBox="0 0 512 512"
 preserveAspectRatio="xMidYMid meet">
<g transform="translate(0,512) scale(0.100000,-0.100000)"
fill="#fff" stroke="none">
<path d="M2666 4975 c-51 -18 -112 -79 -131 -129 -8 -23 -60 -414 -115 -871
-55 -456 -103 -840 -106 -852 -2 -14 -12 -23 -23 -23 -11 0 -21 9 -24 23 -4
12 -79 369 -167 792 -114 542 -168 782 -183 809 -33 59 -87 98 -144 103 -67 7
-151 -26 -197 -77 -67 -74 -67 -18 3 -1094 35 -534 63 -993 63 -1021 0 -27 -5
-62 -11 -78 -6 -15 -73 -121 -149 -235 -161 -241 -177 -281 -176 -432 1 -74 6
-109 24 -155 28 -72 4 -37 419 -625 l336 -475 5 -217 5 -218 28 -27 27 -28
343 -6 c188 -4 485 -7 661 -8 l318 -1 34 34 34 34 0 163 c0 158 1 165 34 263
31 93 42 165 142 938 l108 836 -32 64 c-64 129 -169 218 -311 264 -72 23 -86
32 -119 73 -131 163 -224 223 -344 220 -49 -2 -63 2 -81 20 -27 26 -28 -47 19
966 27 603 32 770 23 807 -32 136 -178 211 -313 163z"/>
</g>
</svg>
