<svg version="1.0" xmlns="http://www.w3.org/2000/svg"
 width="512.000000pt" height="512.000000pt" viewBox="0 0 512.000000 512.000000"
 preserveAspectRatio="xMidYMid meet">
<g transform="translate(0.000000,512.000000) scale(0.100000,-0.100000)"
fill="#fff" stroke="none">
<path d="M2277 4899 c-99 -23 -192 -103 -226 -195 -22 -59 -27 -147 -12 -202
9 -32 9 -32 -39 -53 -59 -25 -133 -102 -162 -167 -27 -60 -29 -178 -4 -236
l17 -40 -45 -45 c-74 -77 -91 -120 -91 -233 l0 -97 -305 -3 -305 -3 -67 -33
c-76 -37 -120 -83 -157 -162 -69 -150 1 -335 155 -411 47 -23 58 -24 297 -27
158 -2 247 -7 247 -13 0 -20 -426 -436 -532 -520 -59 -47 -184 -140 -277 -207
l-169 -122 -159 0 c-130 0 -163 -3 -182 -16 -51 -36 -51 -31 -51 -785 0 -778
-2 -751 65 -783 28 -14 87 -16 406 -16 l373 0 484 -161 c461 -153 592 -188
454 -118 -239 119 -233 461 9 570 37 17 48 27 43 38 -4 9 -9 48 -11 86 -6 96
22 171 89 238 l50 50 -18 46 c-27 69 -24 163 8 231 36 79 80 125 156 162 l67
33 932 3 933 2 7 28 c5 15 7 55 6 89 -2 114 -73 221 -179 274 -47 23 -58 24
-296 27 -137 2 -248 7 -248 11 0 5 73 84 163 176 230 239 368 355 694 588
l121 87 159 0 c130 0 163 3 182 16 51 36 51 31 51 785 0 778 2 751 -65 783
-28 14 -87 16 -406 16 l-373 0 -481 160 -481 160 -395 -1 c-217 -1 -411 -5
-432 -10z m896 -1933 c-10 -13 -44 -57 -75 -98 -111 -143 -186 -321 -209 -493
-11 -86 -8 -192 6 -227 7 -17 -20 -18 -480 -18 l-487 0 19 24 c10 13 46 61 81
106 128 167 202 374 205 570 1 58 -1 117 -6 133 l-7 27 486 0 486 0 -19 -24z"/>
<path d="M2379 1461 c-47 -48 -37 -130 21 -164 25 -15 78 -17 509 -17 l481 0
10 26 c11 29 13 106 4 153 l-6 31 -495 0 -495 0 -29 -29z"/>
<path d="M2303 1055 c-33 -14 -63 -59 -63 -95 0 -12 7 -35 16 -51 30 -58 37
-59 558 -59 l475 0 11 55 c9 41 9 69 0 110 l-11 55 -477 0 c-384 -1 -483 -3
-509 -15z"/>
<path d="M2078 623 c-56 -35 -66 -117 -19 -164 l29 -29 495 0 495 0 6 31 c3
17 6 51 6 74 0 23 -3 57 -6 74 l-6 31 -487 0 c-435 -1 -489 -2 -513 -17z"/>
</g>
</svg>
